<svg width="29" height="29" viewBox="0 0 29 29" fill="none" xmlns="http://www.w3.org/2000/svg">
<path d="M0.93335 0.933342H2.6749C3.00293 0.933342 3.16694 0.933342 3.29893 0.993662C3.41524 1.04682 3.51381 1.13231 3.58288 1.23994C3.66126 1.36207 3.68446 1.52443 3.73085 1.84916L4.36192 6.26668M4.36192 6.26668L5.76444 16.5752C5.94242 17.8834 6.03142 18.5375 6.34415 19.0298C6.61972 19.4636 7.01479 19.8086 7.48182 20.0232C8.01183 20.2667 8.67194 20.2667 9.99216 20.2667H21.4027C22.6594 20.2667 23.2878 20.2667 23.8013 20.0406C24.2541 19.8412 24.6425 19.5198 24.9231 19.1123C25.2413 18.6502 25.3588 18.0329 25.594 16.7984L27.3588 7.53293C27.4416 7.09842 27.483 6.88116 27.423 6.71134C27.3704 6.56237 27.2666 6.43692 27.1301 6.35737C26.9745 6.26668 26.7533 6.26668 26.311 6.26668H4.36192ZM11.6 26.2667C11.6 27.0031 11.0031 27.6 10.2667 27.6C9.5303 27.6 8.93335 27.0031 8.93335 26.2667C8.93335 25.5303 9.5303 24.9333 10.2667 24.9333C11.0031 24.9333 11.6 25.5303 11.6 26.2667ZM22.2667 26.2667C22.2667 27.0031 21.6697 27.6 20.9334 27.6C20.197 27.6 19.6 27.0031 19.6 26.2667C19.6 25.5303 20.197 24.9333 20.9334 24.9333C21.6697 24.9333 22.2667 25.5303 22.2667 26.2667Z" stroke="white" stroke-width="1.86667" stroke-linecap="round" stroke-linejoin="round"/>
</svg>
