<svg width="20" height="16" viewBox="0 0 20 16" fill="none" xmlns="http://www.w3.org/2000/svg">
<path d="M0.699219 3.70001L12.6992 3.70001M12.6992 3.70001C12.6992 5.35687 14.0424 6.70001 15.6992 6.70001C17.3561 6.70001 18.6992 5.35687 18.6992 3.70001C18.6992 2.04316 17.3561 0.700012 15.6992 0.700012C14.0424 0.700012 12.6992 2.04316 12.6992 3.70001ZM6.69922 11.7L18.6992 11.7M6.69922 11.7C6.69922 13.3569 5.35607 14.7 3.69922 14.7C2.04236 14.7 0.699219 13.3569 0.699219 11.7C0.699219 10.0432 2.04236 8.70001 3.69922 8.70001C5.35607 8.70001 6.69922 10.0432 6.69922 11.7Z" stroke="black" stroke-width="1.4" stroke-linecap="round" stroke-linejoin="round"/>
</svg>
