<svg width="22" height="20" viewBox="0 0 22 20" fill="none" xmlns="http://www.w3.org/2000/svg">
<path d="M11.7998 4.80017L10.6843 2.56909C10.3632 1.92697 10.2027 1.6059 9.96317 1.37133C9.75138 1.1639 9.49613 1.00614 9.21588 0.90948C8.89897 0.800171 8.54001 0.800171 7.8221 0.800171H3.9998C2.8797 0.800171 2.31965 0.800171 1.89182 1.01816C1.5155 1.2099 1.20954 1.51587 1.01779 1.89219C0.799805 2.32001 0.799805 2.88007 0.799805 4.00017V4.80017M0.799805 4.80017H15.9998C17.68 4.80017 18.52 4.80017 19.1618 5.12715C19.7263 5.41477 20.1852 5.87371 20.4728 6.4382C20.7998 7.07993 20.7998 7.92001 20.7998 9.60017V14.0002C20.7998 15.6803 20.7998 16.5204 20.4728 17.1621C20.1852 17.7266 19.7263 18.1856 19.1618 18.4732C18.52 18.8002 17.68 18.8002 15.9998 18.8002H5.5998C3.91965 18.8002 3.07957 18.8002 2.43783 18.4732C1.87335 18.1856 1.41441 17.7266 1.12679 17.1621C0.799805 16.5204 0.799805 15.6803 0.799805 14.0002V4.80017ZM7.7998 11.8002L9.7998 13.8002L14.2998 9.30017" stroke="black" stroke-width="1.6" stroke-linecap="round" stroke-linejoin="round"/>
</svg>
