<svg width="151" height="54" viewBox="0 0 151 54" fill="none" xmlns="http://www.w3.org/2000/svg">
<path d="M39.4546 29.4797H44.3646V40.1115H47.1152V29.4797H52.0252V26.7291H39.4546V29.4797Z" fill="white"/>
<path d="M79.8571 26.7291L75.9463 26.7446L72.7987 30.8671L69.6511 26.7446L65.7402 26.7291L70.948 33.2913L65.7402 40.1115H69.2342L72.7987 35.6228L76.3632 40.1115H79.8571L74.6493 33.2913L79.8571 26.7291Z" fill="white"/>
<path d="M53.0549 26.7291V29.4797V32.0472V34.7956V37.3631V40.1115H55.8055H65.3123V37.3631H55.8055V34.7956H64.4124V32.0472H55.8055V29.4797H65.3123V26.7291H55.8055H53.0549Z" fill="white"/>
<path d="M96.5505 26.7291V29.4797V32.0472V34.7956V37.3631V40.1115H99.3011H108.808V37.3631H99.3011V34.7956H107.908V32.0472H99.3011V29.4797H108.808V26.7291H99.3011H96.5505Z" fill="white"/>
<path d="M95.6109 31.584V30.8671C95.6109 29.0297 94.1221 27.5409 92.2869 27.5409H88.6077V26.7291H85.8593V27.5409H82.233C80.3978 27.5409 78.9089 29.0297 78.9089 30.8671V31.584H82.2286V30.8671C82.2286 30.34 82.6565 29.912 83.1837 29.912H85.8571V35.8235H83.7903C82.93 35.8235 82.2308 35.1243 82.2308 34.264V34.1515H78.9111V34.264C78.9111 36.4345 80.6713 38.1925 82.8418 38.1925H85.8637V40.1115H88.6121V38.1925H91.6891C93.8596 38.1925 95.6176 36.4345 95.6176 34.264V34.1515H92.2979V34.264C92.2979 35.1243 91.5987 35.8235 90.7384 35.8235H88.6694V29.912H91.3428C91.87 29.912 92.2979 30.34 92.2979 30.8671V31.584H95.6176H95.6109Z" fill="white"/>
<path d="M118.871 26.7291H111.023V29.4797H119.054C119.749 29.4797 120.313 30.0422 120.313 30.7392C120.313 31.101 120.168 31.4274 119.929 31.6634C119.693 31.8994 119.365 32.0472 119.005 32.0472H112.397H109.646V40.1137H112.397V34.7669H119.213C121.043 34.7669 122.526 33.2824 122.526 31.4517V30.3885C122.526 28.368 120.889 26.7313 118.869 26.7313L118.871 26.7291Z" fill="white"/>
<path d="M132.696 26.7291H124.848V29.4797H132.879C133.574 29.4797 134.138 30.0422 134.138 30.7392C134.138 31.101 133.991 31.4274 133.755 31.6634C133.519 31.8994 133.19 32.0472 132.83 32.0472H123.474V40.1137H126.224V34.7669H133.04C134.871 34.7669 136.353 33.2824 136.353 31.4517V30.3885C136.353 28.368 134.716 26.7313 132.696 26.7313V26.7291Z" fill="white"/>
<path d="M146.849 26.7291H141.107C138.996 26.7291 137.287 28.4386 137.287 30.5495V36.2911C137.287 38.402 138.996 40.1115 141.107 40.1115H142.695V37.7403H141.59C140.789 37.7403 140.139 37.0896 140.139 36.2889V30.5473C140.139 29.7466 140.789 29.0959 141.59 29.0959H146.39C147.19 29.0959 147.841 29.7466 147.841 30.5473V36.2889C147.841 37.0896 147.19 37.7403 146.39 37.7403H145.26V40.1115H146.846C148.957 40.1115 150.667 38.3998 150.667 36.2911V30.5495C150.667 28.4386 148.957 26.7291 146.846 26.7291H146.849Z" fill="white"/>
<path d="M29.4095 21.1795C27.4155 17.7098 25.2097 15.0011 23.7098 13.338C21.9849 11.4256 20.2247 9.82643 19.0049 9.06323C18.5682 8.78972 18.0168 8.73898 17.5337 8.92647C17.0506 9.11396 16.6801 9.51982 16.5411 10.0139C15.2904 14.496 13.9846 16.7106 11.823 20.381C10.6032 22.45 9.08785 25.0241 7.1909 28.6857C6.92621 29.1952 6.69019 29.7003 6.48064 30.1988C6.41668 30.351 6.18728 30.2959 6.20272 30.1304C6.388 28.2092 6.85341 26.1005 7.79307 23.9521C8.63125 22.0309 10.2062 19.2296 11.8737 16.265C13.0648 14.1431 14.2978 11.9506 15.3765 9.87715C17.8138 5.19653 18.3675 2.33126 17.1234 0.860019C16.2367 -0.185511 14.7875 -0.0774311 14.0552 0.154173C13.1817 0.416659 12.6987 1.4269 11.6465 3.61501C11.0267 4.90538 10.2569 6.50896 9.28195 8.18534C8.64449 9.27939 7.79527 10.5764 6.89753 11.9506C5.29174 14.4056 3.46978 17.1892 2.29632 19.6817C-0.632925 25.9086 -0.760857 32.2832 1.91914 38.627C4.02564 43.6142 7.29236 47.1104 8.52317 48.4272C8.67978 48.5948 8.85845 48.7867 8.90256 48.8419C8.90036 48.8375 8.88492 48.8198 8.86728 48.7889C9.88193 50.1058 11.051 51.2484 12.3127 52.1307C12.3391 52.1505 12.37 52.1704 12.4031 52.1946C12.8575 52.5211 13.7927 53.1938 15.2507 53.2291C16.0757 53.249 17.0705 53.0659 18.2395 52.499C19.7064 51.7888 21.0453 50.8248 22.8606 49.1727C27.8478 44.6289 30.9006 39.8865 31.9307 35.0779C32.9167 30.4767 32.0696 25.8005 29.4139 21.1817L29.4095 21.1795ZM13.7376 21.5103C14.8713 19.5847 15.8066 17.9988 16.6293 16.2496C16.669 16.1658 16.7771 16.1393 16.8499 16.1967C17.5712 16.7702 18.5064 17.5752 19.5299 18.6053C19.5431 18.6186 19.5542 18.6362 19.563 18.6539C21.9276 24.4153 21.9584 29.7334 19.6512 34.4603C18.9719 35.8522 18.1756 36.9903 17.4543 37.866C17.3661 37.9719 17.194 37.9057 17.1984 37.769L17.3815 31.0855C17.3837 30.9841 17.2844 30.9113 17.1896 30.9443L15.8639 31.4076C12.0259 32.7509 9.13858 35.0868 7.46882 36.7036C7.37397 36.7962 7.21516 36.7234 7.22398 36.5911C7.34089 34.5177 7.8813 32.1818 9.16285 29.7047C11.0311 26.0961 12.531 23.5506 13.7354 21.5059L13.7376 21.5103ZM16.6602 41.7746C16.7793 41.6864 19.5939 39.5843 21.5989 35.5389C22.9444 32.8237 24.098 28.8202 23.3018 23.705C23.2775 23.5506 23.4848 23.4734 23.5664 23.6058C28.214 31.0061 26.4626 38.0866 18.3476 44.6752C16.9778 45.7869 16.0647 46.2942 15.4691 46.27C14.9662 46.2479 14.3993 45.7715 13.5898 44.9553L13.2545 44.6178C12.1119 43.4686 11.351 42.7032 8.26069 39.2777C8.20996 39.2226 8.20996 39.1365 8.26069 39.0814C9.33269 37.9344 11.6465 35.7375 14.8603 34.2199C14.9574 34.1736 15.0699 34.2486 15.0677 34.3544L14.8338 42.8268C14.8294 42.9481 14.9662 43.0187 15.0633 42.9481L16.658 41.7724L16.6602 41.7746ZM4.30797 20.628C5.41526 18.2745 7.1909 15.5614 8.75699 13.1681C9.67238 11.7697 10.5348 10.4506 11.2032 9.30586C12.2222 7.55449 13.0141 5.90458 13.6516 4.57892C14.0773 3.69 14.5537 2.69962 14.8272 2.29817C14.8493 2.26508 14.8868 2.24082 14.9265 2.23641C15.1404 2.20994 15.3632 2.22538 15.425 2.30038C15.7206 2.65551 15.6765 4.48407 13.4023 8.85148C12.3391 10.8918 11.1171 13.0711 9.93265 15.1754C8.23863 18.1907 6.63725 21.0383 5.75274 23.061C3.59992 27.9886 3.68374 32.7067 4.13372 35.797C4.27488 36.7742 4.65428 38.4086 4.65428 38.4086L4.72045 38.6645C4.72045 38.6645 4.72486 38.6777 4.72486 38.6844L4.43149 38.7924C4.27047 38.455 4.11387 38.1109 3.96608 37.7579C1.54195 32.0208 1.65665 26.2571 4.30576 20.6258L4.30797 20.628ZM29.7536 34.6081C28.8228 38.9535 25.9994 43.301 21.3607 47.525C19.3248 49.3801 18.191 50.0484 17.269 50.494C15.2265 51.4822 14.2714 50.7962 13.7001 50.3859C13.6582 50.355 13.6207 50.3285 13.5854 50.3043C12.5288 49.5654 11.5451 48.6103 10.6826 47.5074C10.6716 47.4919 10.6606 47.4765 10.6473 47.4611C9.59297 46.1023 8.7261 44.5252 8.13055 42.8576C8.07761 42.7077 8.26731 42.593 8.37318 42.7099C10.0981 44.5958 10.7686 45.2707 11.6752 46.1817L12.0105 46.5192C13.0075 47.525 14.0155 48.4316 15.3743 48.4889C15.3941 48.4889 15.414 48.4889 15.4338 48.4889C16.6315 48.5176 17.8888 47.9066 19.7483 46.3979C23.4848 43.365 26.0325 40.1446 27.3206 36.8249C29.3279 31.6568 28.3618 26.3123 24.4465 20.9434C21.8901 17.4363 19.1505 15.1246 17.6815 14.0196C17.6308 13.9821 17.6109 13.9137 17.633 13.8541C17.8954 13.1505 18.1513 12.3983 18.3984 11.5756C18.427 11.4785 18.5439 11.4388 18.6233 11.5006C21.8349 13.9424 25.7104 19.2053 27.4795 22.2823C29.8529 26.4115 30.6183 30.5583 29.7514 34.6059L29.7536 34.6081Z" fill="white"/>
</svg>
