<svg width="113" height="40" viewBox="0 0 113 40" fill="none" xmlns="http://www.w3.org/2000/svg">
<path d="M29.5908 22.1529H33.2733V30.1421H35.3363V22.1529H39.0188V20.0859H29.5908V22.1529Z" fill="black"/>
<path d="M59.8923 20.0859L56.9592 20.0975L54.5985 23.1954L52.2378 20.0975L49.3047 20.0859L53.2105 25.017L49.3047 30.1421H51.9251L54.5985 26.769L57.2719 30.1421H59.8923L55.9865 25.017L59.8923 20.0859Z" fill="black"/>
<path d="M39.791 20.0859V22.1529V24.0822V26.1475V28.0768V30.1421H41.854H48.9841V28.0768H41.854V26.1475H48.3091V24.0822H41.854V22.1529H48.9841V20.0859H41.854H39.791Z" fill="black"/>
<path d="M72.4131 20.0859V22.1529V24.0822V26.1475V28.0768V30.1421H74.476H81.6061V28.0768H74.476V26.1475H80.9312V24.0822H74.476V22.1529H81.6061V20.0859H74.476H72.4131Z" fill="black"/>
<path d="M71.7081 23.7341V23.1954C71.7081 21.8147 70.5915 20.6959 69.2151 20.6959H66.4557V20.0859H64.3944V20.6959H61.6747C60.2983 20.6959 59.1816 21.8147 59.1816 23.1954V23.7341H61.6714V23.1954C61.6714 22.7993 61.9923 22.4777 62.3877 22.4777H64.3927V26.9199H62.8426C62.1975 26.9199 61.673 26.3944 61.673 25.748V25.6635H59.1833V25.748C59.1833 27.379 60.5034 28.7 62.1313 28.7H64.3977V30.1421H66.459V28.7H68.7668C70.3946 28.7 71.7131 27.379 71.7131 25.748V25.6635H69.2234V25.748C69.2234 26.3944 68.6989 26.9199 68.0538 26.9199H66.502V22.4777H68.507C68.9024 22.4777 69.2234 22.7993 69.2234 23.1954V23.7341H71.7131H71.7081Z" fill="black"/>
<path d="M89.1527 20.0859H83.2667V22.1529H89.29C89.8111 22.1529 90.2347 22.5755 90.2347 23.0993C90.2347 23.3711 90.1255 23.6164 89.9468 23.7938C89.7698 23.9711 89.5233 24.0822 89.2536 24.0822H84.2973H82.2344V30.1437H84.2973V26.1259H89.4092C90.7822 26.1259 91.8939 25.0104 91.8939 23.6347V22.8358C91.8939 21.3175 90.6664 20.0876 89.1511 20.0876L89.1527 20.0859Z" fill="black"/>
<path d="M99.5222 20.0859H93.6361V22.1529H99.6595C100.181 22.1529 100.604 22.5755 100.604 23.0993C100.604 23.3711 100.493 23.6164 100.316 23.7938C100.139 23.9711 99.8927 24.0822 99.6231 24.0822H92.6055V30.1437H94.6684V26.1259H99.7803C101.153 26.1259 102.265 25.0104 102.265 23.6347V22.8358C102.265 21.3175 101.038 20.0876 99.5222 20.0876V20.0859Z" fill="black"/>
<path d="M110.136 20.0859H105.83C104.247 20.0859 102.965 21.3705 102.965 22.9567V27.2713C102.965 28.8575 104.247 30.1421 105.83 30.1421H107.021V28.3602H106.192C105.592 28.3602 105.104 27.8713 105.104 27.2696V22.9551C105.104 22.3534 105.592 21.8644 106.192 21.8644H109.792C110.393 21.8644 110.881 22.3534 110.881 22.9551V27.2696C110.881 27.8713 110.393 28.3602 109.792 28.3602H108.945V30.1421H110.135C111.718 30.1421 113 28.8558 113 27.2713V22.9567C113 21.3705 111.718 20.0859 110.135 20.0859H110.136Z" fill="black"/>
<path d="M22.0571 15.9153C20.5616 13.308 18.9073 11.2726 17.7824 10.0228C16.4887 8.58574 15.1685 7.38405 14.2537 6.81055C13.9261 6.60502 13.5126 6.56689 13.1503 6.70778C12.788 6.84867 12.51 7.15365 12.4058 7.52494C11.4678 10.893 10.4885 12.5571 8.86724 15.3152C7.9524 16.87 6.81589 18.8043 5.39317 21.5558C5.19466 21.9387 5.01764 22.3182 4.86048 22.6928C4.81251 22.8072 4.64046 22.7658 4.65204 22.6414C4.791 21.1978 5.14006 19.6132 5.8448 17.9988C6.47344 16.5551 7.65462 14.45 8.90529 12.2223C9.79862 10.6278 10.7234 8.98023 11.5323 7.42217C13.3604 3.90493 13.7756 1.75182 12.8426 0.646259C12.1775 -0.139402 11.0906 -0.0581855 10.5414 0.115853C9.8863 0.313097 9.524 1.07224 8.73489 2.71649C8.27003 3.68614 7.69267 4.89115 6.96146 6.15086C6.48337 6.97298 5.84645 7.9476 5.17315 8.98023C3.9688 10.825 2.60234 12.9168 1.72224 14.7898C-0.474694 19.469 -0.570643 24.2592 1.43935 29.0262C3.01923 32.7738 5.46927 35.401 6.39238 36.3905C6.50984 36.5165 6.64384 36.6607 6.67692 36.7021C6.67527 36.6988 6.66369 36.6856 6.65046 36.6623C7.41144 37.6519 8.28823 38.5105 9.2345 39.1735C9.25435 39.1884 9.27751 39.2033 9.30233 39.2215C9.64312 39.4669 10.3445 39.9724 11.438 39.9989C12.0568 40.0138 12.8029 39.8763 13.6797 39.4503C14.7798 38.9166 15.7839 38.1922 17.1454 36.9508C20.8859 33.5363 23.1754 29.9726 23.948 26.3592C24.6875 22.9017 24.0522 19.3878 22.0604 15.9169L22.0571 15.9153ZM10.3032 16.1639C11.1535 14.7169 11.8549 13.5251 12.472 12.2107C12.5018 12.1477 12.5828 12.1278 12.6374 12.1709C13.1784 12.6019 13.8798 13.2069 14.6474 13.9809C14.6574 13.9909 14.6656 14.0042 14.6722 14.0174C16.4457 18.3468 16.4688 22.3431 14.7384 25.8951C14.2289 26.941 13.6317 27.7963 13.0907 28.4543C13.0245 28.5339 12.8955 28.4842 12.8988 28.3814L13.0361 23.3592C13.0378 23.2829 12.9633 23.2282 12.8922 23.2531L11.898 23.6012C9.01944 24.6106 6.85393 26.3659 5.60161 27.5808C5.53048 27.6505 5.41137 27.5958 5.41799 27.4963C5.50567 25.9382 5.91098 24.1829 6.87213 22.3216C8.27334 19.6099 9.39828 17.6971 10.3015 16.1606L10.3032 16.1639ZM12.4952 31.3915C12.5845 31.3252 14.6954 29.7456 16.1992 26.7057C17.2083 24.6653 18.0735 21.6569 17.4763 17.8131C17.4581 17.6971 17.6136 17.6391 17.6748 17.7385C21.1605 23.2995 19.847 28.6201 13.7607 33.5711C12.7334 34.4065 12.0485 34.7877 11.6018 34.7695C11.2246 34.7529 10.7995 34.3949 10.1923 33.7816L9.94089 33.528C9.08396 32.6644 8.51322 32.0893 6.19552 29.5152C6.15747 29.4737 6.15747 29.4091 6.19552 29.3676C6.99952 28.5057 8.73489 26.8548 11.1452 25.7145C11.218 25.6797 11.3024 25.736 11.3007 25.8156L11.1254 32.1821C11.1221 32.2733 11.2246 32.3263 11.2974 32.2733L12.4935 31.3898L12.4952 31.3915ZM3.23098 15.5009C4.06145 13.7323 5.39317 11.6936 6.56774 9.89518C7.25428 8.84431 7.90112 7.85312 8.40238 6.99287C9.16667 5.67681 9.76057 4.43699 10.2387 3.44082C10.558 2.77285 10.9153 2.02862 11.1204 1.72696C11.137 1.70209 11.1651 1.68386 11.1949 1.68055C11.3553 1.66066 11.5224 1.67226 11.5687 1.72862C11.7904 1.99547 11.7573 3.36955 10.0517 6.65142C9.25435 8.18462 8.33786 9.82225 7.44949 11.4035C6.17897 13.6693 4.97794 15.8092 4.31456 17.3291C2.69994 21.032 2.76281 24.5774 3.10029 26.8996C3.20616 27.6339 3.49071 28.8621 3.49071 28.8621L3.54034 29.0544C3.54034 29.0544 3.54364 29.0643 3.54364 29.0693L3.32362 29.1505C3.20285 28.8969 3.0854 28.6383 2.97456 28.3731C1.15647 24.0619 1.24249 19.7309 3.22932 15.4992L3.23098 15.5009ZM22.3152 26.0062C21.6171 29.2715 19.4995 32.5385 16.0205 35.7126C14.4936 37.1066 13.6433 37.6088 12.9518 37.9436C11.4199 38.6862 10.7035 38.1707 10.2751 37.8624C10.2436 37.8392 10.2155 37.8193 10.189 37.8011C9.39662 37.2458 8.6588 36.5281 8.01196 35.6993C8.00369 35.6877 7.99541 35.6761 7.98549 35.6645C7.19472 34.6435 6.54458 33.4584 6.09791 32.2053C6.05821 32.0926 6.20048 32.0064 6.27989 32.0942C7.57356 33.5114 8.07648 34.0186 8.7564 34.7032L9.00786 34.9568C9.75561 35.7126 10.5116 36.3938 11.5307 36.4369C11.5456 36.4369 11.5605 36.4369 11.5754 36.4369C12.4737 36.4585 13.4166 35.9993 14.8112 34.8656C17.6136 32.5865 19.5244 30.1666 20.4905 27.672C21.9959 23.7884 21.2713 19.7723 18.3349 15.7379C16.4175 13.1025 14.3629 11.3654 13.2611 10.535C13.2231 10.5068 13.2082 10.4554 13.2247 10.4107C13.4216 9.88192 13.6135 9.31671 13.7988 8.69845C13.8203 8.62552 13.9079 8.59569 13.9675 8.6421C16.3762 10.477 19.2828 14.4318 20.6096 16.744C22.3896 19.8469 22.9637 22.963 22.3135 26.0045L22.3152 26.0062Z" fill="#E64410"/>
</svg>
