<svg width="26" height="16" viewBox="0 0 26 16" fill="none" xmlns="http://www.w3.org/2000/svg">
<path d="M13.6943 16C5.10395 16 0.204158 9.99399 0 0H4.30302C4.44437 7.33533 7.61667 10.4424 10.1294 11.0831V0H14.1811V6.32633C16.6624 6.05405 19.2694 3.17117 20.1488 0H24.2006C23.8692 1.64466 23.2086 3.20189 22.2601 4.57429C21.3116 5.94668 20.0957 7.10472 18.6883 7.97597C20.2593 8.77206 21.6468 9.89886 22.7594 11.282C23.872 12.6651 24.6844 14.2732 25.1429 16H20.6828C20.2712 14.5001 19.4347 13.1575 18.2782 12.1404C17.1216 11.1233 15.6964 10.4769 14.1811 10.2823V16H13.6943Z" fill="white"/>
</svg>
